<?xml version="1.0" encoding="UTF-8" standalone="no"?>
<svg xmlns="http://www.w3.org/2000/svg" xmlns:svg="http://www.w3.org/2000/svg" xmlns:dc="http://purl.org/dc/elements/1.1/" xmlns:cc="http://creativecommons.org/ns#" xmlns:rdf="http://www.w3.org/1999/02/22-rdf-syntax-ns#" xmlns:xlink="http://www.w3.org/1999/xlink" xmlns:sodipodi="http://sodipodi.sourceforge.net/DTD/sodipodi-0.dtd" xmlns:inkscape="http://www.inkscape.org/namespaces/inkscape" id="svg2" version="1.1" width="3448.5591" height="4708.8423" inkscape:version="0.48.2 r9819" sodipodi:docname="A size illustration2 with letter and legal.svg">
<sodipodi:namedview id="base" pagecolor="white" bordercolor="#666666" borderopacity="1.0" inkscape:pageopacity="0.0" inkscape:pageshadow="2" inkscape:zoom="0.16547107" inkscape:cx="1724.2795" inkscape:cy="2354.4211" inkscape:document-units="px" inkscape:current-layer="layer1" showgrid="false" units="mm" inkscape:window-width="1280" inkscape:window-height="945" inkscape:window-x="0" inkscape:window-y="27" inkscape:window-maximized="1" fit-margin-top="0" fit-margin-left="0" fit-margin-right="0" fit-margin-bottom="0" showguides="true" inkscape:guide-bbox="true"/>
<metadata id="metadata">
	<rdf:RDF>
		<cc:Work rdf:about="">
			<dc:format>image/svg+xml</dc:format>
			<dc:type rdf:resource="http://purl.org/dc/dcmitype/StillImage"/>
			<dc:title>ISO 216 A paper size illustration with US Letter and Legal for comparison</dc:title>
			<cc:license rdf:resource="http://creativecommons.org/licenses/by-sa/3.0/"/>
			<dc:description>Wikipedia Commons Work from User Sven (K)</dc:description>
			<dc:creator><cc:Agent><dc:title>Sven K</dc:title></cc:Agent></dc:creator>
			<dc:date>2006-06-28</dc:date>
		</cc:Work>
	</rdf:RDF>
</metadata>
<g inkscape:label="Layer 1" inkscape:groupmode="layer" id="layer1" transform="translate(1834.3142,2113.7059)" style="display:inline">
<g transform="translate(-1834.0144,-2117.6186)" id="layer-with-US-sizes" style="display:inline">
	<rect width="761" height="986" x="1107.5428" y="391.2338" id="rect4366" style="fill:none; stroke:#e80000; stroke-width:4; stroke-linecap:round; stroke-linejoin:miter; stroke-miterlimit:0; stroke-opacity:1; stroke-dasharray:none; stroke-dashoffset:1.1248"/>
	<use transform="matrix(0.99929583,0,0,1.2733713,761.70956,-106.69601)" id="use4448" style="stroke-width:3.52142549; stroke-miterlimit:0; stroke-dasharray:none" x="0" y="0" width="3448.5591" height="4708.8398" xlink:href="#rect4366"/>
	<g transform="translate(0,-430.09291)" id="g4651">
		<g transform="matrix(1.0301645,0,0,1.000666,-64.950271,4608.1664)" style="fill:red; fill-opacity:1">
			<path inkscape:connector-curvature="0" d="m 329.15625,69.375 -15.375,4.625 15.375,4.65625 0,-3.1875 35.5,0 0,-2.9375 -35.5,0 0,-3.15625 z m 177.0625,0 0,3.15625 -35.46875,0 0,2.9375 35.46875,0 0,3.1875 15.375,-4.65625 -15.375,-4.625 z" transform="matrix(3.538279,0,0,3.538282,29.75538,-3137.245)" id="path4464" style="color:black; fill:red; fill-opacity:1; fill-rule:evenodd; stroke:none; stroke-width:1; marker:none; visibility:visible; display:inline; overflow:visible"/>
			<text sodipodi:linespacing="125%" x="380.14075" y="80.581291" transform="matrix(3.538279,0,0,3.538282,162.9957,-3137.248)" id="text215_9mm" xml:space="preserve" style="font-size:20px; font-style:normal; font-variant:normal; font-weight:normal; font-stretch:normal; text-align:center; line-height:125%; writing-mode:lr-tb; text-anchor:middle; fill:red; fill-opacity:1; stroke:none; font-family:Monospace;"><tspan x="380.14075" y="80.581291" id="tspan4468">215,9 mm</tspan></text>
		</g>
	</g>
	<text sodipodi:linespacing="125%" x="1513.7184" y="1219.8269" id="textLetter" xml:space="preserve" style="font-size:150px; font-style:normal; font-variant:normal; font-weight:normal; font-stretch:normal; text-align:center; line-height:125%; writing-mode:lr-tb; text-anchor:middle; fill:red; fill-opacity:1; stroke:none; font-family:Monospace;"><tspan x="1513.7184" y="1219.8269" id="tspan4968" style="font-size:150px; font-style:normal; font-variant:normal; font-weight:normal; font-stretch:normal; text-align:center; line-height:125%; writing-mode:lr-tb; text-anchor:middle; font-family:Monospace;">Letter</tspan></text>
	<text sodipodi:linespacing="125%" x="2242.8757" y="1224.2566" id="textLegal" xml:space="preserve" style="font-size:150px; font-style:normal; font-variant:normal; font-weight:normal; font-stretch:normal; text-align:center; line-height:125%; writing-mode:lr-tb; text-anchor:middle; fill:red; fill-opacity:1; stroke:none; font-family:Monospace;"><tspan x="2242.8757" y="1224.2566" id="tspan4972">Legal</tspan></text>
	<g transform="translate(-105.79572,0)" id="g4659">
		<g transform="matrix(0,-0.8406071,1,0,4931.6886,3225.0125)" style="fill:red; fill-opacity:1">
			<path inkscape:connector-curvature="0" d="m 1933.2622,-2891.7936 -54.4598,16.3822 54.4598,16.4929 0,-11.2904 529.4413,0 0,-10.4049 -529.4413,0 z" id="path4695" style="color:black; fill:red; fill-opacity:1; fill-rule:evenodd; stroke:none; stroke-width:1; marker:none; visibility:visible; display:inline; overflow:visible"/>
			<path inkscape:connector-curvature="0" d="m 3314.4598,-2891.7936 0,11.1798 -450.4137,0 0,10.4049 450.4137,0 0,11.2904 54.4598,-16.4929 z" id="path4952" style="color:black; fill:red; fill-opacity:1; fill-rule:evenodd; stroke:none; stroke-width:1; marker:none; visibility:visible; display:inline; overflow:visible"/>
			<text sodipodi:linespacing="125%" x="2655.3203" y="-2852.1013" id="text356mm" xml:space="preserve" style="font-size:78.53006744px; font-style:normal; font-variant:normal; font-weight:normal; font-stretch:normal; text-align:center; line-height:125%; writing-mode:lr-tb; text-anchor:middle; fill:red; fill-opacity:1; stroke:none; font-family:Monospace;"><tspan x="2655.3203" y="-2852.1013" id="tspan4956">355,6 mm</tspan></text>
		</g>
	</g>
	<path inkscape:connector-curvature="0" d="m 1188.7817,393.0741 -16.4825,51.29133 11.2833,0 0,346.60744 10.3983,0 0,-346.60744 11.1727,0 z" id="path4675" style="color:black; fill:red; fill-opacity:1; fill-rule:evenodd; stroke:none; stroke-width:1; marker:none; visibility:visible; display:inline; overflow:visible"/>
	<path inkscape:connector-curvature="0" d="m 1183.5825,1153.8422 0,170.6074 -11.2833,0 16.4825,51.2913 16.3718,-51.2913 -11.1727,0 0,-170.6074 z" id="path4960" style="color:black; fill:red; fill-opacity:1; fill-rule:evenodd; stroke:none; stroke-width:1; marker:none; visibility:visible; display:inline; overflow:visible"/>
	<text sodipodi:linespacing="125%" x="-1005.8306" y="1176.5526" transform="matrix(0,-0.97078096,1.0300985,0,0,0)" id="text279_4mm" xml:space="preserve" style="font-size:72px; font-style:normal; font-variant:normal; font-weight:normal; font-stretch:normal; text-align:center; line-height:125%; writing-mode:lr-tb; text-anchor:middle; fill:red; fill-opacity:1; stroke:none; font-family:Monospace;"><tspan x="-1005.8306" y="1176.5526" id="tspan4964">279,4 mm</tspan></text>
	<rect width="1526.7087" height="984.5827" x="362.64038" y="1505.9167" id="rect4636" style="color:black; fill:none; stroke:#e80000; stroke-width:4; stroke-linecap:butt; stroke-linejoin:miter; stroke-miterlimit:4; stroke-opacity:1; stroke-dasharray:none; stroke-dashoffset:0; marker:none; visibility:visible; display:inline; overflow:visible"/>
	<g transform="translate(761.30894,-430.09465)" id="g4677">
		<g transform="matrix(1.0301645,0,0,1.000666,-64.950271,4608.1664)" id="g4683" style="fill:red; fill-opacity:1">
			<path inkscape:connector-curvature="0" d="m 329.15625,69.375 -15.375,4.625 15.375,4.65625 0,-3.1875 35.5,0 0,-2.9375 -35.5,0 0,-3.15625 z m 177.0625,0 0,3.15625 -35.46875,0 0,2.9375 35.46875,0 0,3.1875 15.375,-4.65625 -15.375,-4.625 z" transform="matrix(3.538279,0,0,3.538282,29.75538,-3137.245)" id="path4685" style="color:black; fill:red; fill-opacity:1; fill-rule:evenodd; stroke:none; stroke-width:1; marker:none; visibility:visible; display:inline; overflow:visible"/>
			<text sodipodi:linespacing="125%" x="380.14075" y="80.581291" transform="matrix(3.538279,0,0,3.538282,162.9957,-3137.248)" id="text216mm" xml:space="preserve" style="font-size:20px; font-style:normal; font-variant:normal; font-weight:normal; font-stretch:normal; text-align:center; line-height:125%; writing-mode:lr-tb; text-anchor:middle; fill:red; fill-opacity:1; stroke:none; font-family:Monospace;"><tspan x="380.14075" y="80.581291" id="tspan4689">215,9 mm</tspan></text>
		</g>
	</g>
	<path inkscape:connector-curvature="0" d="m 411.84099,2432.7022 16.37545,56.042 16.4861,-56.042 -11.28579,0 0,-165.4672 -10.40062,0 0,165.4672 z" id="path4716" style="color:black; fill:red; fill-opacity:1; fill-rule:evenodd; stroke:none; stroke-width:1; marker:none; visibility:visible; display:inline; overflow:visible"/>
	<path inkscape:connector-curvature="0" d="m 411.84099,1563.8408 11.17514,0 0,387.0733 10.40062,0 0,-387.0733 11.28579,0 -16.4861,-56.042 z" id="path4701" style="color:black; fill:red; fill-opacity:1; fill-rule:evenodd; stroke:none; stroke-width:1; marker:none; visibility:visible; display:inline; overflow:visible"/>
	<text sodipodi:linespacing="125%" x="-2079.1812" y="458.12195" transform="matrix(0,-1.0146319,0.98557906,0,0,0)" id="text279mm" xml:space="preserve" style="font-size:72px; font-style:normal; font-variant:normal; font-weight:normal; font-stretch:normal; text-align:center; line-height:125%; writing-mode:lr-tb; text-anchor:middle; fill:red; fill-opacity:1; stroke:none; font-family:Monospace;"><tspan x="-2079.1812" y="458.12195" id="tspan4705">279 mm</tspan></text>
	<g id="g44444" transform="translate(0,12.55)">
		<path inkscape:connector-curvature="0" d="m 409.74213,1690.9558 -45.77929,16.3822 45.77929,16.4929 0,-11.2904 445.05212,0 0,-10.4049 -445.05212,0 z" id="path4722" style="color:black; fill:red; fill-opacity:1; fill-rule:evenodd; stroke:none; stroke-width:1; marker:none; visibility:visible; display:inline; overflow:visible"/>
		<path inkscape:connector-curvature="0" d="m 1841.5748,1690.9558 0,11.1798 -654.445,0 0,10.4049 654.445,0 0,11.2904 45.7793,-16.4929 z" id="path4724" style="color:black; fill:red; fill-opacity:1; fill-rule:evenodd; stroke:none; stroke-width:1; marker:none; visibility:visible; display:inline; overflow:visible"/>
		<text sodipodi:linespacing="125%" x="1108.9202" y="1586.7383" transform="scale(0.91684628,1.0906954)" id="text432mm" xml:space="preserve" style="font-size:72px; font-style:normal; font-variant:normal; font-weight:normal; font-stretch:normal; text-align:center; line-height:125%; writing-mode:lr-tb; text-anchor:middle; fill:red; fill-opacity:1; stroke:none; font-family:Monospace;"><tspan x="1108.9202" y="1586.7383" id="tspan4728">432 mm</tspan></text>
	</g>
	<text sodipodi:linespacing="125%" x="1121.3639" y="1643.2659" id="textLedger" xml:space="preserve" style="font-size:150px; font-style:normal; font-variant:normal; font-weight:normal; font-stretch:normal; text-align:center; line-height:125%; writing-mode:lr-tb; text-anchor:middle; fill:red; fill-opacity:1; stroke:none; font-family:Monospace;"><tspan x="1121.3639" y="1643.2659" id="tspan4741" style="font-size:150px; font-style:normal; font-variant:normal; font-weight:normal; font-stretch:normal; text-align:center; line-height:125%; writing-mode:lr-tb; text-anchor:middle; font-family:Monospace;">Ledger</tspan></text>
	<text transform="rotate(-90 1121 1643) translate(-430 -520)" sodipodi:linespacing="125%" x="1121.3639" y="1643.2659" id="textTabloid" xml:space="preserve" style="font-size:150px; font-style:normal; font-variant:normal; font-weight:normal; font-stretch:normal; text-align:center; line-height:125%; writing-mode:lr-tb; text-anchor:middle; fill:red; fill-opacity:1; stroke:none; font-family:Monospace;"><tspan x="1121.3639" y="1643.2659" id="tspan4741" style="font-size:150px; font-style:normal; font-variant:normal; font-weight:normal; font-stretch:normal; text-align:center; line-height:125%; writing-mode:lr-tb; text-anchor:middle; font-family:Monospace;">Tabloid</tspan></text>
</g>
<g id="base-layer">
	<path id="path8466" style="fill:none; stroke:black; stroke-width:3.54060388px; stroke-linecap:butt; stroke-linejoin:miter; stroke-opacity:1" d="m -1471.5851,-1714.9749 0,-290.6666" inkscape:connector-curvature="0"/>
	<path id="path8468" style="fill:none; stroke:black; stroke-width:3.54060388px; stroke-linecap:butt; stroke-linejoin:miter; stroke-opacity:1" d="m 1506.1756,-1714.9749 0,-290.6666" inkscape:connector-curvature="0"/>
	<path id="path8470" style="fill:none; stroke:black; stroke-width:3.54060388px; stroke-linecap:butt; stroke-linejoin:miter; stroke-opacity:1" d="m -1436.6992,-1722.3924 -289.2284,0" inkscape:connector-curvature="0"/>
	<path id="path8472" style="fill:none; stroke:black; stroke-width:3.54060411px; stroke-linecap:butt; stroke-linejoin:miter; stroke-opacity:1" d="m -1473.9895,-1452.2891 -95.0049,0" inkscape:connector-curvature="0"/>
	<path id="path8474" style="fill:none; stroke:black; stroke-width:3.54060411px; stroke-linecap:butt; stroke-linejoin:miter; stroke-opacity:1" d="m -1473.9895,-1191.0891 -95.0049,0" inkscape:connector-curvature="0"/>
	<path id="path8476" style="fill:none; stroke:black; stroke-width:3.54060411px; stroke-linecap:butt; stroke-linejoin:miter; stroke-opacity:1" d="m -1473.9894,-667.2309 -95.005,0" inkscape:connector-curvature="0"/>
	<path id="path9351" style="fill:none; stroke:black; stroke-width:3.54060435px; stroke-linecap:butt; stroke-linejoin:miter; stroke-opacity:1" d="m -1472.7804,376.61537 -105.0412,0" inkscape:connector-curvature="0"/>
	<path id="path11120" style="fill:none; stroke:black; stroke-width:3.54060435px; stroke-linecap:butt; stroke-linejoin:miter; stroke-opacity:1" d="m -1472.8943,2487.072 -253.3506,0" inkscape:connector-curvature="0"/>
	<path id="path11126" style="fill:none; stroke:black; stroke-width:3.54060555px; stroke-linecap:butt; stroke-linejoin:miter; stroke-opacity:1" d="m -1280.0132,-1714.9747 0,-122.1424" inkscape:connector-curvature="0"/>
	<path id="path11128" style="fill:none; stroke:black; stroke-width:3.54060555px; stroke-linecap:butt; stroke-linejoin:miter; stroke-opacity:1" d="m -1095.821,-1714.9747 0,-122.1424" inkscape:connector-curvature="0"/>
	<path id="path11130" style="fill:none; stroke:black; stroke-width:3.54060555px; stroke-linecap:butt; stroke-linejoin:miter; stroke-opacity:1" d="m -726.9925,-1714.9747 0,-122.1424" inkscape:connector-curvature="0"/>
	<path id="path11132" style="fill:none; stroke:black; stroke-width:3.54060388px; stroke-linecap:butt; stroke-linejoin:miter; stroke-opacity:1" d="m 12.3235,-1723.7039 0,-112.0069" inkscape:connector-curvature="0"/>
	<g id="g841mm" transform="translate(-1864.7292,1074.1541)">
		<path style="color:black; fill:black; fill-opacity:1; fill-rule:evenodd; stroke:none; stroke-width:1; marker:none; visibility:visible; display:inline; overflow:visible" id="rect11134" transform="matrix(3.540602,0,0,3.540605,29.02656,-3391.734)" d="m 118.78125,93.21875 -15.375,4.625 15.375,4.65625 0,-3.1875 336.375,0 0,-2.9375 -336.375,0 0,-3.15625 z m 809.15625,0 0,3.15625 -336.375,0 0,2.9375 336.375,0 0,3.1875 15.375,-4.65625 -15.375,-4.625 z" inkscape:connector-curvature="0"/>
		<text style="font-size:20.33551598px; font-style:normal; font-variant:normal; font-weight:normal; font-stretch:normal; text-align:center; line-height:125%; writing-mode:lr-tb; text-anchor:middle; fill:black; fill-opacity:1; stroke:none; font-family:Monospace;" xml:space="preserve" id="text841mm" transform="matrix(3.540602,0,0,3.540605,162.4042,-3396.779)" y="105.84901" x="485.84698" sodipodi:linespacing="125%"><tspan id="tspan14648" y="105.84901" x="485.84698">841 mm</tspan></text>
	</g>
	<g id="g420mm" transform="translate(-1864.7292,1074.1541)">
		<path style="color:black; fill:black; fill-opacity:1; fill-rule:evenodd; stroke:none; stroke-width:1; marker:none; visibility:visible; display:inline; overflow:visible" id="path13763" transform="matrix(3.5421,0,0,3.542103,27.6124,-3137.527)" d="M 538,69.375 522.625,74 538,78.65625 l 0,-3.1875 141.90625,0 0,-2.9375 -141.90625,0 0,-3.15625 z m 389.9375,0 0,3.15625 -141.9375,0 0,2.9375 141.9375,0 0,3.1875 L 943.3125,74 927.9375,69.375 z" inkscape:connector-curvature="0"/>
		<text style="font-size:20.32691574px; font-style:normal; font-variant:normal; font-weight:normal; font-stretch:normal; text-align:center; line-height:125%; writing-mode:lr-tb; text-anchor:middle; fill:black; fill-opacity:1; stroke:none; font-family:Monospace;" xml:space="preserve" id="text420mm" transform="matrix(3.5421,0,0,3.542103,161.0561,-3135.948)" y="80.134727" x="695.62537" sodipodi:linespacing="125%"><tspan id="tspan14654" y="80.134727" x="695.62537">420 mm</tspan></text>
	</g>
	<g id="g210mm" transform="translate(-1864.7292,1074.1541)">
		<path style="color:black; fill:black; fill-opacity:1; fill-rule:evenodd; stroke:none; stroke-width:1; marker:none; visibility:visible; display:inline; overflow:visible" id="path13765" transform="matrix(3.538279,0,0,3.538282,29.75538,-3137.245)" d="m 329.15625,69.375 -15.375,4.625 15.375,4.65625 0,-3.1875 35.5,0 0,-2.9375 -35.5,0 0,-3.15625 z m 177.0625,0 0,3.15625 -35.46875,0 0,2.9375 35.46875,0 0,3.1875 15.375,-4.65625 -15.375,-4.625 z" inkscape:connector-curvature="0"/>
		<text style="font-size:20.34886742px; font-style:normal; font-variant:normal; font-weight:normal; font-stretch:normal; text-align:center; line-height:125%; writing-mode:lr-tb; text-anchor:middle; fill:black; fill-opacity:1; stroke:none; font-family:Monospace;" xml:space="preserve" id="text210mm" transform="matrix(3.538279,0,0,3.538282,162.9957,-3137.248)" y="80.581291" x="380.14075" sodipodi:linespacing="125%"><tspan id="tspan14660" y="80.581291" x="380.14075">210 mm</tspan></text>
	</g>
	<g id="g105mm" transform="translate(-1864.7292,1074.1541)">
		<path style="color:black; fill:black; fill-opacity:1; fill-rule:evenodd; stroke:none; stroke-width:1; marker:none; visibility:visible; display:inline; overflow:visible" id="path13769" transform="matrix(3.540602,0,0,3.540605,29.02656,-3137.417)" d="m 224.99531,69.375824 -15.375,4.625 15.375,4.65625 0,-3.1875 72.25056,0 0,3.1875 15.375,-4.65625 -15.375,-4.625 0,3.15625 -72.25056,0 0,-3.15625 z" inkscape:connector-curvature="0"/>
		<text style="font-size:20.33551598px; font-style:normal; font-variant:normal; font-weight:normal; font-stretch:normal; text-align:center; line-height:125%; writing-mode:lr-tb; text-anchor:middle; fill:black; fill-opacity:1; stroke:none; font-family:Monospace;" xml:space="preserve" id="text105mm" transform="matrix(3.540602,0,0,3.540605,162.4077,-3137.417)" y="57.870762" x="223.22856" sodipodi:linespacing="125%"><tspan id="tspan14664" y="57.870762" x="223.22856">105 mm</tspan></text>
	</g>
	<g id="g52mm" transform="translate(-1864.7292,1074.1541)">
		<path style="color:black; fill:black; fill-opacity:1; fill-rule:evenodd; stroke:none; stroke-width:1; marker:none; visibility:visible; display:inline; overflow:visible" id="path13767" transform="matrix(3.540602,0,0,3.540605,29.02656,-3137.417)" d="m 172.99531,69.375824 -15.375,4.625 15.375,4.65625 0,-3.1875 20.98532,0 0,3.1875 15.375,-4.65625 -15.375,-4.625 0,3.15625 -20.98532,0 0,-3.15625 z" inkscape:connector-curvature="0"/>
		<text style="font-size:20.33551598px; font-style:normal; font-variant:normal; font-weight:normal; font-stretch:normal; text-align:center; line-height:125%; writing-mode:lr-tb; text-anchor:middle; fill:black; fill-opacity:1; stroke:none; font-family:Monospace;" xml:space="preserve" id="text52mm" transform="matrix(3.540602,0,0,3.540605,142.0794,-3137.417)" y="57.870762" x="151.63243" sodipodi:linespacing="125%"><tspan id="tspan14668" y="57.870762" x="151.63243">52 mm</tspan></text>
	</g>
	<g id="g1189mm" transform="translate(-1864.7292,1074.1541)">
		<path style="color:black; fill:black; fill-opacity:1; fill-rule:evenodd; stroke:none; stroke-width:1; marker:none; visibility:visible; display:inline; overflow:visible" id="path14670" transform="matrix(3.540602,0,0,3.540605,-126.7599,-3221.785)" d="m 86.21875,120.5 -4.65625,15.375 3.1875,0 0,510.5 2.9375,0 0,-510.5 3.15625,0 -4.625,-15.375 z M 84.75,782.78125 l 0,510.50005 -3.1875,0 4.65625,15.375 4.625,-15.375 -3.15625,0 0,-510.50005 -2.9375,0 z" inkscape:connector-curvature="0"/>
		<text style="font-size:20.33551598px; font-style:normal; font-variant:normal; font-weight:normal; font-stretch:normal; text-align:center; line-height:125%; writing-mode:lr-tb; text-anchor:middle; fill:black; fill-opacity:1; stroke:none; font-family:Monospace;" xml:space="preserve" id="text1189mm" transform="matrix(0,-3.540605,3.540602,0,-126.8107,-3375.52)" y="92.782318" x="-758.21881" sodipodi:linespacing="125%"><tspan id="tspan14686" y="92.782318" x="-758.21881">1189 mm</tspan></text>
	</g>
	<g id="g594mm" transform="translate(-1864.7292,1074.1541)">
		<path style="color:black; fill:black; fill-opacity:1; fill-rule:evenodd; stroke:none; stroke-width:1; marker:none; visibility:visible; display:inline; overflow:visible" id="path14678" transform="matrix(3.540602,0,0,3.540605,135.2446,-3221.785)" d="m 56.21875,712.875 -4.65625,15.375 3.1875,0 0,224.96875 2.9375,0 0,-224.96875 3.15625,0 -4.625,-15.375 z m -1.46875,355.3125 0,224.9688 -3.1875,0 4.65625,15.375 4.625,-15.375 -3.15625,0 0,-224.9688 -2.9375,0 z" inkscape:connector-curvature="0"/>
		<text style="font-size:20.33551598px; font-style:normal; font-variant:normal; font-weight:normal; font-stretch:normal; text-align:center; line-height:125%; writing-mode:lr-tb; text-anchor:middle; fill:black; fill-opacity:1; stroke:none; font-family:Monospace;" xml:space="preserve" id="text594mm" transform="matrix(0,-3.540605,3.540602,0,135.1938,-3355.128)" y="62.782314" x="-1048.2894" sodipodi:linespacing="125%"><tspan id="tspan14692" y="62.782314" x="-1048.2894">594 mm</tspan></text>
	</g>
	<g id="g297mm" transform="translate(-1864.7292,1074.1541)">
		<path style="color:black; fill:black; fill-opacity:1; fill-rule:evenodd; stroke:none; stroke-width:1; marker:none; visibility:visible; display:inline; overflow:visible" id="path14672" transform="matrix(3.540602,0,0,3.540605,135.2446,-3221.785)" d="m 56.21875,418.375 -4.65625,15.375 3.1875,0 0,78.71875 2.9375,0 0,-78.71875 3.15625,0 -4.625,-15.375 z M 54.75,618.84375 l 0,78.71875 -3.1875,0 4.65625,15.375 4.625,-15.375 -3.15625,0 0,-78.71875 -2.9375,0 z" inkscape:connector-curvature="0"/>
		<text style="font-size:20.33551598px; font-style:normal; font-variant:normal; font-weight:normal; font-stretch:normal; text-align:center; line-height:125%; writing-mode:lr-tb; text-anchor:middle; fill:black; fill-opacity:1; stroke:none; font-family:Monospace;" xml:space="preserve" id="text297mm" transform="matrix(0,-3.540605,3.540602,0,135.1938,-3355.168)" y="62.782314" x="-603.21851" sodipodi:linespacing="125%"><tspan id="tspan14698" y="62.782314" x="-603.21851">297 mm</tspan></text>
	</g>
	<g id="g148mm" transform="translate(-1864.7292,1074.1541)">
		<path style="color:black; fill:black; fill-opacity:1; fill-rule:evenodd; stroke:none; stroke-width:1; marker:none; visibility:visible; display:inline; overflow:visible" id="path14674" transform="matrix(3.540602,0,0,3.540605,135.2446,-3221.785)" d="m 56.21875,270.875 -4.65625,15.375 3.1875,0 0,8.875 2.9375,0 0,-8.875 3.15625,0 -4.625,-15.375 z M 54.75,393.6875 l 0,8.875 -3.1875,0 4.65625,15.375 4.625,-15.375 -3.15625,0 0,-8.875 -2.9375,0 z" inkscape:connector-curvature="0"/>
		<text style="font-size:20.33551598px; font-style:normal; font-variant:normal; font-weight:normal; font-stretch:normal; text-align:center; line-height:125%; writing-mode:lr-tb; text-anchor:middle; fill:black; fill-opacity:1; stroke:none; font-family:Monospace;" xml:space="preserve" id="text148mm" transform="matrix(0,-3.540605,3.540602,0,135.1938,-3355.168)" y="62.782314" x="-382.29871" sodipodi:linespacing="125%"><tspan id="tspan14704" y="62.782314" x="-382.29871">148 mm</tspan></text>
	</g>
	<g id="g74mm" transform="translate(-1864.7292,1074.1541)">
		<path style="color:black; fill:black; fill-opacity:1; fill-rule:evenodd; stroke:none; stroke-width:1; marker:none; visibility:visible; display:inline; overflow:visible" id="path14676" transform="matrix(3.540602,0,0,3.540605,135.2446,-3221.785)" d="m 60.858103,212.31552 -4.625,-15.375 -4.65625,15.375 3.1875,0 0,42.39666 -3.1875,0 4.65625,15.375 4.625,-15.375 -3.15625,0 0,-42.39666 3.15625,0 z" inkscape:connector-curvature="0"/>
		<text style="font-size:20.33551598px; font-style:normal; font-variant:normal; font-weight:normal; font-stretch:normal; text-align:center; line-height:125%; writing-mode:lr-tb; text-anchor:middle; fill:black; fill-opacity:1; stroke:none; font-family:Monospace;" xml:space="preserve" id="text14706" transform="matrix(0,-3.540605,3.540602,0,135.2446,-3334.838)" y="42.518345" x="-265.41342" sodipodi:linespacing="125%"><tspan id="tspan14708" y="42.518345" x="-265.41342">74 mm</tspan></text>
	</g>
	<g id="gA4">
		<rect style="opacity:0.6; color:black; fill:#c9dbe5; fill-opacity:1; fill-rule:evenodd; stroke:black; stroke-width:3.54414392; stroke-linecap:butt; stroke-linejoin:miter; stroke-miterlimit:4; stroke-opacity:1; stroke-dasharray:none; stroke-dashoffset:0; marker:none; visibility:visible; display:inline; overflow:visible" id="rectA4" y="-1722.4092" x="-727.00055" height="1054.323" width="740.55035"/>
		<text style="font-size:200px; font-style:normal; font-variant:normal; font-weight:normal; font-stretch:normal; text-align:center; line-height:125%; writing-mode:lr-tb; text-anchor:middle; fill:black; fill-opacity:1; stroke:none; font-family:Monospace;" xml:space="preserve" id="textA4" y="-1145.3052" x="-350.02863" sodipodi:linespacing="125%"><tspan id="tspan14736" y="-1145.3052" x="-350.02863">A4</tspan></text>
	</g>
	<g id="gRest">
			<rect style="color:black; fill:#818181; fill-opacity:1; fill-rule:evenodd; stroke:none; stroke-width:0.84164512; marker:none; visibility:visible; display:inline; overflow:visible" id="rectRest" y="-1720.9557" x="-1469.8611" height="266.88687" width="188.17767"/>
	</g>
	<g id="gA3">
		<rect width="1484.373" height="1044.0038" x="-1471.663" y="-667.21014" id="rectA3" style="opacity:0.6; color:black; fill:#dbe7ee; fill-opacity:1; fill-rule:evenodd; stroke:black; stroke-width:3.42229342; stroke-linecap:butt; stroke-linejoin:miter; stroke-miterlimit:4; stroke-opacity:1; stroke-dasharray:none; stroke-dashoffset:0; marker:none; visibility:visible; display:inline; overflow:visible"/>
		<text sodipodi:linespacing="125%" x="-829.98834" y="43.36113" id="textA3" xml:space="preserve" style="font-size:200px; font-style:normal; font-variant:normal; font-weight:normal; font-stretch:normal; text-align:center; line-height:125%; writing-mode:lr-tb; text-anchor:middle; fill:black; fill-opacity:1; stroke:none; font-family:Monospace;"><tspan x="-829.98834" y="43.36113" id="tspan14740">A3</tspan></text>
	</g>
	<g id="gA2">
		<rect width="1493.3823" height="2099.6404" x="12.68059" y="-1722.7703" id="rectA2" style="opacity:0.6; color:black; fill:#e9f1f5; fill-opacity:1; fill-rule:evenodd; stroke:black; stroke-width:3.54099989; stroke-linecap:butt; stroke-linejoin:miter; stroke-miterlimit:4; stroke-opacity:1; stroke-dasharray:none; stroke-dashoffset:0; marker:none; visibility:visible; display:inline; overflow:visible"/>
		<text sodipodi:linespacing="125%" x="1074.8928" y="48.704636" id="textA2" xml:space="preserve" style="font-size:200px; font-style:normal; font-variant:normal; font-weight:normal; font-stretch:normal; text-align:center; line-height:125%; writing-mode:lr-tb; text-anchor:middle; fill:black; fill-opacity:1; stroke:none; font-family:Monospace;"><tspan x="1074.8928" y="48.704636" id="tspan14744" style="font-size:200px; font-style:normal; font-variant:normal; font-weight:normal; font-stretch:normal; text-align:center; line-height:125%; writing-mode:lr-tb; text-anchor:middle; font-family:Monospace;">A2</tspan></text>
	</g>
	<g id="gA1">
		<rect width="2976.3838" height="2109.4309" x="-1471.6038" y="376.65112" id="rectA1" style="color:black; fill:white; fill-opacity:1; fill-rule:evenodd; stroke:black; stroke-width:3.5406034; stroke-linecap:butt; stroke-linejoin:miter; stroke-miterlimit:4; stroke-opacity:1; stroke-dasharray:none; stroke-dashoffset:0; marker:none; visibility:visible; display:inline; overflow:visible"/>
		<text sodipodi:linespacing="125%" x="43.353134" y="1661.0232" id="textA1" xml:space="preserve" style="font-size:200px; font-style:normal; font-variant:normal; font-weight:normal; font-stretch:normal; text-align:center; line-height:125%; writing-mode:lr-tb; text-anchor:middle; fill:black; fill-opacity:1; stroke:none; font-family:Monospace;"><tspan x="43.353134" y="1661.0232" id="tspan14748">A1</tspan></text>
	</g>
	<g id="gA0">
			<rect style="color:black; fill:none; stroke:black; stroke-width:3.5406034; stroke-linecap:butt; stroke-linejoin:miter; stroke-miterlimit:4; stroke-opacity:1; stroke-dasharray:none; stroke-dashoffset:0; marker:none; visibility:visible; display:inline; overflow:visible" id="rectA0" y="-1722.7372" x="-1471.603" height="4209.7793" width="2977.6462"/>
			<text style="font-size:72px; font-style:normal; font-variant:normal; font-weight:normal; font-stretch:normal; text-align:center; line-height:125%; writing-mode:lr-tb; text-anchor:middle; fill:white; fill-opacity:0.82033895; stroke:black; stroke-width:12; stroke-linecap:butt; stroke-linejoin:miter; stroke-miterlimit:4; stroke-opacity:1; stroke-dasharray:none; font-family:Monospace;" xml:space="preserve" id="textA0" y="592.625" x="29.380907" sodipodi:linespacing="125%"><tspan style="font-size:600px; font-style:normal; font-variant:normal; font-weight:normal; font-stretch:normal; text-align:center; line-height:125%; writing-mode:lr-tb; text-anchor:middle; stroke-width:12; stroke-miterlimit:4; stroke-dasharray:none; font-family:Monospace;" id="tspan14752" y="592.625" x="29.380907">A0</tspan></text>
	</g>
	<g id="gA5">
		<rect width="743.77063" height="525.07715" ry="0" x="-1471.5894" y="-1191.0543" id="rectA5" style="opacity:0.6; color:black; fill:#b7cfdc; fill-opacity:1; fill-rule:evenodd; stroke:black; stroke-width:3.54983473; stroke-linecap:butt; stroke-linejoin:miter; stroke-miterlimit:4; stroke-opacity:1; stroke-dasharray:none; stroke-dashoffset:0; marker:none; visibility:visible; display:inline; overflow:visible"/>
		<text sodipodi:linespacing="125%" x="-1090.2844" y="-844.42798" id="textA5" xml:space="preserve" style="font-size:200px; font-style:normal; font-variant:normal; font-weight:normal; font-stretch:normal; text-align:center; line-height:125%; writing-mode:lr-tb; text-anchor:middle; fill:black; fill-opacity:1; stroke:none; font-family:Monospace;"><tspan x="-1090.2844" y="-844.42798" id="tspan14732">A5</tspan></text>
	</g>
	<g id="gA7">
		<rect width="376.08786" height="262.332" x="-1470.6608" y="-1452.2816" id="rectA7" style="opacity:0.6; color:black; fill:#92b7cb; fill-opacity:1; fill-rule:evenodd; stroke:black; stroke-width:3.54060268; stroke-linecap:butt; stroke-linejoin:miter; stroke-miterlimit:4; stroke-opacity:1; stroke-dasharray:none; stroke-dashoffset:0; marker:none; visibility:visible; display:inline; overflow:visible"/>
		<text sodipodi:linespacing="125%" x="-1277.1672" y="-1270.2637" id="textA7" xml:space="preserve" style="font-size:72px; font-style:normal; font-variant:normal; font-weight:normal; font-stretch:normal; text-align:center; line-height:125%; writing-mode:lr-tb; text-anchor:middle; fill:black; fill-opacity:1; stroke:none; font-family:Monospace;"><tspan x="-1277.1672" y="-1270.2637" id="tspan14728" style="font-size:100px">A7</tspan></text>
	</g>
	<g id="gA6">
		<rect width="368.91586" height="532.01709" x="-1095.4221" y="-1722.796" id="rectA6" style="opacity:0.6; color:black; fill:#a5c3d4; fill-opacity:1; fill-rule:evenodd; stroke:black; stroke-width:3.42888212; stroke-linecap:butt; stroke-linejoin:miter; stroke-miterlimit:4; stroke-opacity:1; stroke-dasharray:none; stroke-dashoffset:0; marker:none; visibility:visible; display:inline; overflow:visible"/>
		<text sodipodi:linespacing="125%" x="-906.1283" y="-1393.5389" id="textA6" xml:space="preserve" style="font-size:72px; font-style:normal; font-variant:normal; font-weight:normal; font-stretch:normal; text-align:center; line-height:125%; writing-mode:lr-tb; text-anchor:middle; fill:black; fill-opacity:1; stroke:none; font-family:Monospace;"><tspan x="-906.1283" y="-1393.5389" id="tspan14724" style="font-size:100px">A6</tspan></text>
	</g>
	<g id="gA8">
		<rect width="183.75191" height="269.41589" x="-1280.0098" y="-1722.0734" id="rectA8" style="opacity:0.6; color:black; fill:#7ca8c0; fill-opacity:1; fill-rule:evenodd; stroke:black; stroke-width:2.97993159; stroke-linecap:butt; stroke-linejoin:miter; stroke-miterlimit:4; stroke-opacity:1; stroke-dasharray:none; stroke-dashoffset:0; marker:none; visibility:visible; display:inline; overflow:visible"/>
		<text sodipodi:linespacing="125%" x="-1184.8322" y="-1547.9835" id="textA8" xml:space="preserve" style="font-size:72px; font-style:normal; font-variant:normal; font-weight:normal; font-stretch:normal; text-align:center; line-height:125%; writing-mode:lr-tb; text-anchor:middle; fill:black; fill-opacity:1; stroke:none; font-family:Monospace;"><tspan x="-1184.8322" y="-1547.9835" id="tspan14720" style="font-size:100px">A8</tspan></text>
	</g>
</g>
</g>
</svg>