<?xml version="1.0" encoding="UTF-8" standalone="no"?>
<svg
   width="576"
   height="258"
   version="1.1"
   viewBox="0 0 192 86 "
   style="background-color: PaleGreen"
   id="svg2"
   sodipodi:docname="AND.svg"
   xml:space="preserve"
   inkscape:version="1.4.2 (f4327f4, 2025-05-13)"
   xmlns:inkscape="http://www.inkscape.org/namespaces/inkscape"
   xmlns:sodipodi="http://sodipodi.sourceforge.net/DTD/sodipodi-0.dtd"
   xmlns:xlink="http://www.w3.org/1999/xlink"
   xmlns="http://www.w3.org/2000/svg"
   xmlns:svg="http://www.w3.org/2000/svg"><defs
     id="defs2" /><sodipodi:namedview
     id="namedview2"
     pagecolor="#ffffff"
     bordercolor="#000000"
     borderopacity="0.25"
     inkscape:showpageshadow="2"
     inkscape:pageopacity="0.0"
     inkscape:pagecheckerboard="0"
     inkscape:deskcolor="#d1d1d1"
     showgrid="false"
     inkscape:zoom="6.92"
     inkscape:cx="98.049133"
     inkscape:cy="35.765896"
     inkscape:window-width="1920"
     inkscape:window-height="991"
     inkscape:window-x="-9"
     inkscape:window-y="-9"
     inkscape:window-maximized="1"
     inkscape:current-layer="svg2"
     inkscape:lockguides="false" /><g
     id="g14"
     transform="translate(8.5260116,10.260116)"><g
       id="g3"
       transform="translate(0,-24.19587)"><path
         fill="none"
         stroke="#000000"
         stroke-width="2"
         d="m 65,74.722548 h 25 m -64,-10 H 0 m 27,20 H 0"
         id="path1" /><path
         d="m 25,54.722548 v 40 h 20.47619 c 11.267908,0 20,-9.000045 20,-20 0,-10.999955 -8.732091,-20 -20,-20 z m 2.857143,2.857143 H 45.47619 c 9.760663,0 16.666667,7.639955 16.666667,17.142857 0,9.502902 -7.382195,17.142857 -17.142857,17.142857 H 27.857143 Z"
         id="path2" /></g><text
       xml:space="preserve"
       style="font-size:8.57639px;text-align:start;writing-mode:lr-tb;direction:ltr;text-anchor:start;fill:#000000;stroke-width:0.714699"
       x="32.105629"
       y="54.068508"
       id="text6"
       transform="scale(1.0243932,0.97618766)"><tspan
         sodipodi:role="line"
         id="tspan6"
         x="32.105629"
         y="54.068508"
         style="stroke-width:0.714699">AND</tspan></text></g><g
     id="g15"><path
       fill="none"
       stroke="#000000"
       stroke-width="3"
       d="m 44.869459,25.371268 a 4,4 0 1 1 -8,0 4,4 0 1 1 8,0 z"
       style="marker:none"
       id="path3-9" /><use
       x="0"
       y="0"
       xlink:href="#path3-9"
       id="use10" /><path
       fill="none"
       stroke="#000000"
       stroke-width="3"
       d="m 73.285644,25.371268 a 4,4 0 1 1 -8,0 4,4 0 1 1 8,0 z"
       style="marker:none"
       id="path3-9-1" /><path
       style="fill:#000000;fill-opacity:1;stroke:#000000;stroke-width:1.769;stroke-dasharray:none"
       d="M 42.992356,23.127671 73.208988,8.7189189 v 0"
       id="path10" /><path
       style="fill:#000000;fill-opacity:1;stroke:#000000;stroke-width:2.082;stroke-dasharray:none"
       d="m 74.311656,25.371268 h 44.364164 v 0"
       id="path10-5" /><path
       style="fill:#000000;fill-opacity:1;stroke:#000000;stroke-width:1.90501;stroke-dasharray:none"
       d="m 15.196049,25.371268 h 20.809249 v 0"
       id="path10-7" /></g><path
     fill="none"
     stroke="#000000"
     stroke-width="3"
     d="m 125.83478,25.804791 a 4,4 0 1 1 -8,0 4,4 0 1 1 8,0 z"
     style="marker:none"
     id="path3-9-4" /><use
     x="0"
     y="0"
     xlink:href="#path3-9-4"
     id="use10-2" /><path
     fill="none"
     stroke="#000000"
     stroke-width="3"
     d="m 154.25096,25.804791 a 4,4 0 1 1 -8,0 4,4 0 1 1 8,0 z"
     style="marker:none"
     id="path3-9-1-3" /><path
     style="fill:#000000;fill-opacity:1;stroke:#000000;stroke-width:1.769;stroke-dasharray:none"
     d="M 123.95767,23.561194 154.1743,9.152442 v 0"
     id="path10-2" /><path
     style="fill:#000000;fill-opacity:1;stroke:#000000;stroke-width:1.91819;stroke-dasharray:none"
     d="m 155.27697,25.804791 h 21.09827 v 0"
     id="path10-5-2" /><g
     id="g13"
     transform="translate(89.075145,36.167633)"><path
       fill="none"
       stroke="#000000"
       stroke-width="2"
       d="M 79,25 H 95 M 31,15 H 5 M 32,35 H 5"
       id="path1-6" /><path
       d="m 30,5 v 40 h 20.47619 c 11.267908,0 20,-9.000045 20,-20 0,-10.999955 -8.732091,-20 -20,-20 z m 2.857143,2.857143 H 50.47619 c 9.760663,0 16.666667,7.639955 16.666667,17.142857 0,9.502902 -7.382195,17.142857 -17.142857,17.142857 H 32.857143 Z"
       id="path2-8" /><path
       fill="none"
       stroke="#000000"
       stroke-width="3"
       d="m 79,25 a 4,4 0 1 1 -8,0 4,4 0 1 1 8,0 z"
       id="path3" /></g><text
     xml:space="preserve"
     style="font-size:8.57639px;text-align:start;writing-mode:lr-tb;direction:ltr;text-anchor:start;fill:#000000;stroke-width:0.714699"
     x="122.24352"
     y="64.883118"
     id="text6-7"
     transform="scale(1.0243932,0.97618766)"><tspan
       sodipodi:role="line"
       id="tspan6-6"
       x="122.24352"
       y="64.883118"
       style="stroke-width:0.714699">NAND</tspan></text><text
     xml:space="preserve"
     style="font-size:8.57639px;text-align:start;writing-mode:lr-tb;direction:ltr;text-anchor:start;fill:#000000;stroke-width:0.714699"
     x="77.45739"
     y="14.800352"
     id="text6-8"
     transform="scale(1.0243932,0.97618766)"><tspan
       sodipodi:role="line"
       id="tspan6-9"
       x="77.45739"
       y="14.800352"
       style="stroke-width:0.714699">AND Gate</tspan></text></svg>
