<?xml version="1.0" encoding="UTF-8" standalone="no"?>
<svg
   width="622.31598"
   height="332.86099"
   version="1.1"
   style="background-color:#cdebff"
   id="svg2"
   sodipodi:docname="basicGate.svg"
   xml:space="preserve"
   inkscape:version="1.4.2 (f4327f4, 2025-05-13)"
   inkscape:export-filename="basicGate.png"
   inkscape:export-xdpi="96"
   inkscape:export-ydpi="96"
   xmlns:inkscape="http://www.inkscape.org/namespaces/inkscape"
   xmlns:sodipodi="http://sodipodi.sourceforge.net/DTD/sodipodi-0.dtd"
   xmlns="http://www.w3.org/2000/svg"
   xmlns:svg="http://www.w3.org/2000/svg"><defs
     id="defs2" /><sodipodi:namedview
     id="namedview2"
     pagecolor="#cdebff"
     bordercolor="#000000"
     borderopacity="0.25"
     inkscape:showpageshadow="2"
     inkscape:pageopacity="0.0"
     inkscape:pagecheckerboard="0"
     inkscape:deskcolor="#d1d1d1"
     showgrid="true"
     inkscape:zoom="1.2232947"
     inkscape:cx="268.53709"
     inkscape:cy="131.20305"
     inkscape:window-width="1920"
     inkscape:window-height="991"
     inkscape:window-x="-9"
     inkscape:window-y="-9"
     inkscape:window-maximized="1"
     inkscape:current-layer="svg2"
     inkscape:export-bgcolor="#d9ffffff" /><g
     id="g7"
     transform="matrix(3.3,0,0,3.3,-11.793387,14.305483)"><g
       id="g3"
       transform="translate(7.2895012,-53.855496)"><path
         fill="none"
         stroke="#000000"
         stroke-width="2"
         d="m 65,74.722548 h 25 m -64,-10 H 0 m 27,20 H 0"
         id="path1" /><path
         d="m 25,54.722548 v 40 h 20.47619 c 11.267908,0 20,-9.000045 20,-20 0,-10.999955 -8.732091,-20 -20,-20 z m 2.857143,2.857143 H 45.47619 c 9.760663,0 16.666667,7.639955 16.666667,17.142857 0,9.502902 -7.382195,17.142857 -17.142857,17.142857 H 27.857143 Z"
         id="path2" /></g><text
       xml:space="preserve"
       style="font-size:8.57639px;text-align:start;writing-mode:lr-tb;direction:ltr;text-anchor:start;fill:#000000;stroke-width:0.714699"
       x="39.22155"
       y="23.68539"
       id="text6"
       transform="scale(1.0243932,0.97618766)"><tspan
         sodipodi:role="line"
         id="tspan6"
         x="39.22155"
         y="23.68539"
         style="stroke-width:0.714699">AND</tspan></text></g><g
     id="g1"
     transform="matrix(3.3,0,0,3.3,-11.793387,14.305483)"><g
       id="g4"
       transform="translate(5.6363225,49.612712)"><g
         id="g2"
         transform="translate(-3.3468213,-5)"><path
           fill="none"
           stroke="#000000"
           stroke-width="2"
           d="M 70,25 H 95 M 31,15 H 5 M 32,35 H 5"
           id="path1-8" /><path
           fill-rule="evenodd"
           d="m 24.09375,5 2,2.4375 c 0,0 5.65625,7.000049 5.65625,17.5625 0,10.562451 -5.65625,17.5625 -5.65625,17.5625 l -2,2.4375 H 41.25 c 2.408076,10e-7 7.689699,0.02451 13.625,-2.40625 5.935301,-2.430764 12.536536,-7.343266 17.6875,-16.875 L 71.25,25 72.5625,24.28125 C 62.259387,5.21559 46.006574,5 41.25,5 Z m 5.875,3 H 41.25 C 45.934173,8 59.53685,7.869793 69.21875,25 64.451964,33.429075 58.697469,37.68391 53.5,39.8125 48.139339,42.007924 43.658075,42.000001 41.25,42 H 30 c 1.873588,-3.108434 4.75,-9.04935 4.75,-17 0,-7.973354 -2.908531,-13.900185 -4.78125,-17 z"
           id="path2-8" /></g></g><text
       xml:space="preserve"
       style="font-size:9.66479px;text-align:start;writing-mode:lr-tb;direction:ltr;text-anchor:start;fill:#000000;stroke-width:0.805399"
       x="44.9575"
       y="70.440781"
       id="text7"
       transform="scale(0.98246623,1.0178467)"><tspan
         sodipodi:role="line"
         id="tspan7"
         x="44.9575"
         y="70.440781"
         style="stroke-width:0.805399">OR</tspan></text></g><g
     id="g8"
     transform="matrix(3.3,0,0,3.3,289.59392,-227.94885)"><g
       id="g6"
       transform="translate(100.2895,93.398839)"><g
         id="g5"
         transform="translate(-98.021739)"><path
           fill="none"
           stroke="#000000"
           stroke-width="2"
           d="M 79.15691,25 H 95 m -65.956522,0 h -24"
           id="path1-2" /><path
           d="m 28.96875,2.59375 v 44.8125 l 2.15625,-1.0625 41.03125,-20 v -2.6875 l -41.03125,-20 z m 3,4.8125 L 68.09375,25 31.96875,42.59375 Z"
           style="marker:none"
           id="path2-4" /><path
           fill="none"
           stroke="#000000"
           stroke-width="3"
           d="m 79,25 a 4,4 0 1 1 -8,0 4,4 0 1 1 8,0 z"
           style="marker:none"
           id="path3" /></g></g><text
       xml:space="preserve"
       style="font-size:9.11049px;text-align:start;writing-mode:lr-tb;direction:ltr;text-anchor:start;fill:#000000;stroke-width:0.759208"
       x="37.935184"
       y="119.75912"
       id="text8"
       transform="scale(0.98519071,1.0150319)"><tspan
         sodipodi:role="line"
         id="tspan8"
         x="37.935184"
         y="119.75912"
         style="stroke-width:0.759208">NOT</tspan></text></g></svg>
