<?xml version="1.0" encoding="UTF-8" standalone="no"?>
<!-- Created with Inkscape (http://www.inkscape.org/) -->

<svg
   width="140mm"
   height="85mm"
   version="1.1"
   viewBox="0 0 56 34"
   style="background-color: Thistle"
   id="svg1"
   xml:space="preserve"
   inkscape:version="1.4.2 (f4327f4, 2025-05-13)"
   sodipodi:docname="OR.svg"
   xmlns:inkscape="http://www.inkscape.org/namespaces/inkscape"
   xmlns:sodipodi="http://sodipodi.sourceforge.net/DTD/sodipodi-0.dtd"
   xmlns:xlink="http://www.w3.org/1999/xlink"
   xmlns="http://www.w3.org/2000/svg"
   xmlns:svg="http://www.w3.org/2000/svg"><sodipodi:namedview
     id="namedview1"
     pagecolor="#ffffff"
     bordercolor="#000000"
     borderopacity="0.25"
     inkscape:showpageshadow="2"
     inkscape:pageopacity="0.0"
     inkscape:pagecheckerboard="0"
     inkscape:deskcolor="#d1d1d1"
     inkscape:document-units="mm"
     inkscape:zoom="1.3843855"
     inkscape:cx="313.49649"
     inkscape:cy="256.79263"
     inkscape:window-width="1920"
     inkscape:window-height="991"
     inkscape:window-x="-9"
     inkscape:window-y="-9"
     inkscape:window-maximized="1"
     inkscape:current-layer="layer1" /><defs
     id="defs1" /><g
     inkscape:label="圖層 1"
     inkscape:groupmode="layer"
     id="layer1"
     transform="translate(-83.872916,-145.52083)"><path
       fill="none"
       stroke="#000000"
       stroke-width="0.79375"
       d="m 108.68433,153.75306 a 1.058335,1.058335 0 1 1 -2.11667,0 1.058335,1.058335 0 1 1 2.11667,0 z"
       style="marker:none"
       id="path3-9" /><use
       x="0"
       y="0"
       xlink:href="#path3-9"
       id="use10" /><path
       fill="none"
       stroke="#000000"
       stroke-width="0.79375"
       d="m 116.20277,153.75306 a 1.0583333,1.0583333 0 1 1 -2.11666,0 1.0583333,1.0583333 0 1 1 2.11666,0 z"
       style="marker:none"
       id="path3-9-1" /><path
       style="fill:#000000;fill-opacity:1;stroke:#000000;stroke-width:0.468048;stroke-dasharray:none"
       d="m 108.18768,153.15945 7.99481,-3.81232 v 0"
       id="path10" /><path
       style="fill:#000000;fill-opacity:1;stroke:#000000;stroke-width:0.36726;stroke-dasharray:none"
       d="m 116.47424,153.75306 h 5.21741 v 0"
       id="path10-5" /><path
       style="fill:#000000;fill-opacity:1;stroke:#000000;stroke-width:0.504034;stroke-dasharray:none"
       d="m 100.83324,153.75306 h 5.50578 v 0"
       id="path10-7" /><path
       fill="none"
       stroke="#000000"
       stroke-width="0.79375"
       d="m 108.21339,161.09786 a 1.058336,1.058336 0 1 1 -2.11667,0 1.058336,1.058336 0 1 1 2.11667,0 z"
       style="marker:none"
       id="path3-9-4" /><use
       x="0"
       y="0"
       xlink:href="#path3-9-4"
       id="use10-2" /><path
       fill="none"
       stroke="#000000"
       stroke-width="0.79375"
       d="m 115.73184,161.09786 a 1.058335,1.058335 0 1 1 -2.11667,0 1.058335,1.058335 0 1 1 2.11667,0 z"
       style="marker:none"
       id="path3-9-1-3" /><path
       style="fill:#000000;fill-opacity:1;stroke:#000000;stroke-width:0.468048;stroke-dasharray:none"
       d="m 107.71674,160.50424 7.99481,-3.81232 v 0"
       id="path10-2" /><path
       style="fill:#000000;fill-opacity:1;stroke:#000000;stroke-width:0.51816;stroke-dasharray:none"
       d="m 116.0033,160.89515 h 5.81875 v 0"
       id="path10-5-2" /><text
       xml:space="preserve"
       style="font-size:2.26917px;text-align:start;writing-mode:lr-tb;direction:ltr;text-anchor:start;fill:#000000;stroke-width:0.189097"
       x="104.11748"
       y="151.53191"
       id="text6-8"
       transform="scale(1.0243932,0.97618766)"><tspan
         sodipodi:role="line"
         id="tspan6-9"
         x="104.11748"
         y="151.53191"
         style="stroke-width:0.189097">OR Gate</tspan></text><g
       id="g1"
       transform="matrix(0.26458333,0,0,0.26458333,109.29506,165.04946)"><path
         fill="none"
         stroke="#000000"
         stroke-width="2"
         d="M 79,25 H 95 M 31,15 H 5 M 32,35 H 5"
         id="path1" /><path
         fill-rule="evenodd"
         d="m 24.09375,5 2,2.4375 c 0,0 5.65625,7.000049 5.65625,17.5625 0,10.562451 -5.65625,17.5625 -5.65625,17.5625 l -2,2.4375 H 41.25 c 2.408076,10e-7 7.689699,0.02451 13.625,-2.40625 5.935301,-2.430764 12.536536,-7.343266 17.6875,-16.875 L 71.25,25 72.5625,24.28125 C 62.259387,5.21559 46.006574,5 41.25,5 Z m 5.875,3 H 41.25 C 45.934173,8 59.53685,7.869793 69.21875,25 64.451964,33.429075 58.697469,37.68391 53.5,39.8125 48.139339,42.007924 43.658075,42.000001 41.25,42 H 30 c 1.873588,-3.108434 4.75,-9.04935 4.75,-17 0,-7.973354 -2.908531,-13.900185 -4.78125,-17 z"
         id="path2" /><path
         fill="none"
         stroke="#000000"
         stroke-width="3"
         d="m 79,25 a 4,4 0 1 1 -8,0 4,4 0 1 1 8,0 z"
         style="marker:none"
         id="path3" /></g><g
       id="g2"
       transform="matrix(0.26458333,0,0,0.26458333,88.077058,165.04946)"><path
         fill="none"
         stroke="#000000"
         stroke-width="2"
         d="M 70,25 H 95 M 31,15 H 5 M 32,35 H 5"
         id="path1-5" /><path
         fill-rule="evenodd"
         d="m 24.09375,5 2,2.4375 c 0,0 5.65625,7.000049 5.65625,17.5625 0,10.562451 -5.65625,17.5625 -5.65625,17.5625 l -2,2.4375 H 41.25 c 2.408076,10e-7 7.689699,0.02451 13.625,-2.40625 5.935301,-2.430764 12.536536,-7.343266 17.6875,-16.875 L 71.25,25 72.5625,24.28125 C 62.259387,5.21559 46.006574,5 41.25,5 Z m 5.875,3 H 41.25 C 45.934173,8 59.53685,7.869793 69.21875,25 64.451964,33.429075 58.697469,37.68391 53.5,39.8125 48.139339,42.007924 43.658075,42.000001 41.25,42 H 30 c 1.873588,-3.108434 4.75,-9.04935 4.75,-17 0,-7.973354 -2.908531,-13.900185 -4.78125,-17 z"
         id="path2-4" /></g><path
       style="fill:#000000;fill-opacity:1;stroke:#000000;stroke-width:0.472526;stroke-dasharray:none"
       d="m 100.96487,161.09214 h 4.83896 v 0"
       id="path10-5-2-3" /><path
       style="fill:#000000;stroke:#000000;stroke-width:0.483692"
       d="m 121.44267,153.66219 0.13458,7.0293 v -0.0725 0.0725"
       id="path4" /><path
       style="fill:#000000;stroke:#000000;stroke-width:0.483692"
       d="m 101.08879,153.95793 0.13458,7.0293 v -0.0725 0.0725"
       id="path4-7" /><path
       style="fill:#000000;fill-opacity:1;stroke:#000000;stroke-width:0.720748;stroke-dasharray:none"
       d="M 122.22778,157.34262 H 133.486 v 0"
       id="path10-5-2-8" /><path
       style="fill:#000000;fill-opacity:1;stroke:#000000;stroke-width:0.709851;stroke-dasharray:none"
       d="m 89.468233,157.37598 h 10.920357 v 0"
       id="path10-5-2-86" /><path
       fill="none"
       stroke="#000000"
       stroke-width="0.79375"
       d="m 101.66967,157.43028 a 0.59926025,0.63304558 0 1 1 -1.19852,0 0.59926025,0.63304558 0 1 1 1.19852,0 z"
       style="fill:#000000;fill-opacity:1;stroke-width:0.462086;stroke-dasharray:none;marker:none"
       id="path3-9-1-3-6-0" /><path
       fill="none"
       stroke="#000000"
       stroke-width="0.79375"
       d="m 122.06941,157.33477 a 0.59926025,0.63304558 0 1 1 -1.19852,0 0.59926025,0.63304558 0 1 1 1.19852,0 z"
       style="fill:#000000;fill-opacity:1;stroke-width:0.462086;stroke-dasharray:none;marker:none"
       id="path3-9-1-3-6-0-9" /><text
       xml:space="preserve"
       style="font-size:3.20942px;font-family:Arial;-inkscape-font-specification:Arial;text-align:start;writing-mode:lr-tb;direction:ltr;text-anchor:start;fill:#000000;stroke:#000000;stroke-width:0.277825"
       x="101.71788"
       y="167.44933"
       id="text1"
       transform="scale(0.96968579,1.0312619)"><tspan
         sodipodi:role="line"
         id="tspan1"
         style="stroke-width:0.277826"
         x="101.71788"
         y="167.44933">OR</tspan></text><text
       xml:space="preserve"
       style="font-size:2.96234px;font-family:Arial;-inkscape-font-specification:Arial;text-align:start;writing-mode:lr-tb;direction:ltr;text-anchor:start;fill:#000000;stroke:#000000;stroke-width:0.256436"
       x="126.22623"
       y="163.18591"
       id="text2"
       transform="scale(0.94576376,1.0573465)"><tspan
         sodipodi:role="line"
         id="tspan2"
         style="stroke-width:0.256437"
         x="126.22623"
         y="163.18591">NOR</tspan></text></g></svg>
