<?xml version="1.0" encoding="UTF-8" standalone="no"?>
<svg
   width="430"
   height="124"
   version="1.1"
   style="background-color: LightYellow"
   id="svg3"
   sodipodi:docname="XOR.svg"
   xml:space="preserve"
   inkscape:version="1.4.2 (f4327f4, 2025-05-13)"
   xmlns:inkscape="http://www.inkscape.org/namespaces/inkscape"
   xmlns:sodipodi="http://sodipodi.sourceforge.net/DTD/sodipodi-0.dtd"
   xmlns="http://www.w3.org/2000/svg"
   xmlns:svg="http://www.w3.org/2000/svg"><defs
     id="defs3" /><sodipodi:namedview
     id="namedview3"
     pagecolor="#ffffff"
     bordercolor="#000000"
     borderopacity="0.25"
     inkscape:showpageshadow="2"
     inkscape:pageopacity="0.0"
     inkscape:pagecheckerboard="0"
     inkscape:deskcolor="#d1d1d1"
     inkscape:zoom="1.3735549"
     inkscape:cx="288.66701"
     inkscape:cy="116.12204"
     inkscape:window-width="1920"
     inkscape:window-height="991"
     inkscape:window-x="-9"
     inkscape:window-y="-9"
     inkscape:window-maximized="1"
     inkscape:current-layer="svg3" /><g
     id="g5"
     transform="matrix(2.1361218,0,0,2.4934241,178.69681,-2.0128618)"><path
       fill="none"
       stroke="#000000"
       stroke-width="2"
       d="m -6.8147759,25.2574 h 15.84309 m -65.9565221,0 h -24"
       id="path1" /><path
       d="M -57.002936,2.8511503 V 47.66365 l 2.15625,-1.0625 41.03125,-20 v -2.6875 L -54.846686,3.9136503 Z m 3,4.8125 36.125,17.5937497 -36.125,17.59375 z"
       style="marker:none"
       id="path2" /><path
       fill="none"
       stroke="#000000"
       stroke-width="3"
       d="m -6.9716859,25.2574 a 4,4 0 1 1 -8.0000001,0 4,4 0 1 1 8.0000001,0 z"
       style="marker:none"
       id="path3" /></g><g
     id="g4"
     transform="matrix(2.1361218,0,0,2.4934241,219.09893,-0.59447769)"><path
       fill="none"
       stroke="#000000"
       stroke-width="2"
       d="M 70,25 H 95 M 30.38572,15 H 5 M 31.3621,35 H 5"
       id="path1-8" /><g
       fill-rule="evenodd"
       id="g3"><path
         d="M 24.25,42 C 22.65263,44.6444 22,45 22,45 h -3.65625 l 2,-2.4375 C 20.34375,42.5625 26,35.56245 26,25 26,14.43755 20.34375,7.4375 20.34375,7.4375 L 18.34375,5 H 22 c 0.78125,0.9375 1.42188,1.65625 2.21875,3 C 26.09147,11.09981 29,17.02665 29,25 c 0,7.95065 -2.8967,13.87942 -4.75,17 z"
         id="path2-8" /><path
         d="m 24.09375,5 2,2.4375 c 0,0 5.65625,7.00005 5.65625,17.5625 0,10.56245 -5.65625,17.5625 -5.65625,17.5625 l -2,2.4375 H 41.25 c 2.40808,0 7.6897,0.02451 13.625,-2.40625 5.9353,-2.43076 12.53654,-7.34327 17.6875,-16.875 L 71.25,25 72.5625,24.28125 C 62.25939,5.21559 46.00657,5 41.25,5 Z m 5.875,3 H 41.25 C 45.93417,8 59.53685,7.8698 69.21875,25 64.45196,33.42907 58.69747,37.68391 53.5,39.8125 48.13934,42.00792 43.65808,42 41.25,42 H 30 c 1.87359,-3.10843 4.75,-9.04935 4.75,-17 0,-7.97335 -2.90853,-13.90019 -4.78125,-17 z"
         id="path3-2" /></g></g><text
     xml:space="preserve"
     style="font-size:30.7715px;font-family:Arial;-inkscape-font-specification:Arial;text-align:start;writing-mode:lr-tb;direction:ltr;text-anchor:start;fill:#000000;stroke:#000000;stroke-width:6.92578"
     x="76.631248"
     y="75.956947"
     id="text5"
     transform="scale(0.92558208,1.0804012)"><tspan
       sodipodi:role="line"
       id="tspan5"
       x="76.631248"
       y="75.956947"
       style="stroke-width:6.92578" /></text><text
     xml:space="preserve"
     style="font-size:30.7715px;font-family:Arial;-inkscape-font-specification:Arial;text-align:start;writing-mode:lr-tb;direction:ltr;text-anchor:start;fill:#000000;stroke:#000000;stroke-width:6.92578"
     x="73.066971"
     y="75.956947"
     id="text6"
     transform="scale(0.92558208,1.0804012)"><tspan
       sodipodi:role="line"
       id="tspan6"
       x="73.066971"
       y="75.956947"
       style="stroke-width:6.92578"></tspan></text><g
     id="g8"
     transform="matrix(2.1361218,0,0,2.4934241,178.69681,-2.0128618)"><path
       fill="none"
       stroke="#000000"
       stroke-width="2"
       d="m -6.8147759,25.2574 h 15.84309 m -65.9565221,0 h -24"
       id="path6" /><path
       d="M -57.002936,2.8511503 V 47.66365 l 2.15625,-1.0625 41.03125,-20 v -2.6875 L -54.846686,3.9136503 Z m 3,4.8125 36.125,17.5937497 -36.125,17.59375 z"
       style="marker:none"
       id="path7" /><path
       fill="none"
       stroke="#000000"
       stroke-width="3"
       d="m -6.9716859,25.2574 a 4,4 0 1 1 -8.0000001,0 4,4 0 1 1 8.0000001,0 z"
       style="marker:none"
       id="path8" /></g><g
     id="g12"
     transform="matrix(2.1361218,0,0,2.4934241,219.09893,-0.59447769)"><path
       fill="none"
       stroke="#000000"
       stroke-width="2"
       d="M 70,25 H 95 M 30.38572,15 H 5 M 31.3621,35 H 5"
       id="path9" /><g
       fill-rule="evenodd"
       id="g11"><path
         d="M 24.25,42 C 22.65263,44.6444 22,45 22,45 h -3.65625 l 2,-2.4375 C 20.34375,42.5625 26,35.56245 26,25 26,14.43755 20.34375,7.4375 20.34375,7.4375 L 18.34375,5 H 22 c 0.78125,0.9375 1.42188,1.65625 2.21875,3 C 26.09147,11.09981 29,17.02665 29,25 c 0,7.95065 -2.8967,13.87942 -4.75,17 z"
         id="path10" /><path
         d="m 24.09375,5 2,2.4375 c 0,0 5.65625,7.00005 5.65625,17.5625 0,10.56245 -5.65625,17.5625 -5.65625,17.5625 l -2,2.4375 H 41.25 c 2.40808,0 7.6897,0.02451 13.625,-2.40625 5.9353,-2.43076 12.53654,-7.34327 17.6875,-16.875 L 71.25,25 72.5625,24.28125 C 62.25939,5.21559 46.00657,5 41.25,5 Z m 5.875,3 H 41.25 C 45.93417,8 59.53685,7.8698 69.21875,25 64.45196,33.42907 58.69747,37.68391 53.5,39.8125 48.13934,42.00792 43.65808,42 41.25,42 H 30 c 1.87359,-3.10843 4.75,-9.04935 4.75,-17 0,-7.97335 -2.90853,-13.90019 -4.78125,-17 z"
         id="path11" /></g></g><text
     xml:space="preserve"
     style="font-size:30.7715px;font-family:Arial;-inkscape-font-specification:Arial;text-align:start;writing-mode:lr-tb;direction:ltr;text-anchor:start;fill:#000000;stroke:#000000;stroke-width:6.92578"
     x="76.631248"
     y="75.956947"
     id="text12"
     transform="scale(0.92558208,1.0804012)"><tspan
       sodipodi:role="line"
       id="tspan12"
       x="76.631248"
       y="75.956947"
       style="stroke-width:6.92578" /></text><text
     xml:space="preserve"
     style="font-size:30.7715px;font-family:Arial;-inkscape-font-specification:Arial;text-align:start;writing-mode:lr-tb;direction:ltr;text-anchor:start;fill:#000000;stroke:#000000;stroke-width:6.92578"
     x="73.066971"
     y="75.956947"
     id="text13"
     transform="scale(0.92558208,1.0804012)"><tspan
       sodipodi:role="line"
       id="tspan13"
       x="73.066971"
       y="75.956947"
       style="stroke-width:6.92578"></tspan></text><text
     xml:space="preserve"
     style="font-style:normal;font-variant:normal;font-weight:normal;font-stretch:normal;font-size:24px;font-family:Arial;-inkscape-font-specification:Arial;text-align:start;writing-mode:lr-tb;direction:ltr;text-anchor:start;fill:#000000;stroke:#000000;stroke-width:3.00094"
     x="68.799583"
     y="70.255653"
     id="text15"><tspan
       sodipodi:role="line"
       id="tspan15"
       x="68.799583"
       y="70.255653">NOT</tspan></text><text
     xml:space="preserve"
     style="font-style:normal;font-variant:normal;font-weight:normal;font-stretch:normal;font-size:24px;font-family:Arial;-inkscape-font-specification:Arial;text-align:start;writing-mode:lr-tb;direction:ltr;text-anchor:start;fill:#000000;stroke:#000000;stroke-width:3.00094"
     x="298.85956"
     y="68.799576"
     id="text16"><tspan
       sodipodi:role="line"
       id="tspan16"
       x="298.85956"
       y="68.799576">XOR</tspan></text></svg>
